<svg width="150" height="150" viewBox="0 0 150 150" fill="none" xmlns="http://www.w3.org/2000/svg">
<path opacity="0.4" d="M146.971 50.1869L117.375 59.4032V83.8224L130.828 79.6475C131.065 79.5687 131.303 79.3324 131.382 79.0961L133.281 71.9279C133.36 71.6915 133.519 71.4552 133.835 71.3765L143.094 68.4619C143.331 68.3831 143.568 68.1468 143.648 67.9105L148.079 51.0534C148.158 50.5807 147.604 50.0293 146.971 50.1869Z" fill="url(#paint0_linear)"/>
<path opacity="0.4" d="M146.971 50.1869L117.375 59.4032V83.8224L130.828 79.6475C131.065 79.5687 131.303 79.3324 131.382 79.0961L133.281 71.9279C133.36 71.6915 133.519 71.4552 133.835 71.3765L143.094 68.4619C143.331 68.3831 143.568 68.1468 143.648 67.9105L148.079 51.0534C148.158 50.5807 147.604 50.0293 146.971 50.1869Z" fill="url(#paint1_linear)"/>
<path opacity="0.4" d="M32.1497 92.7236V86.5794L20.1215 82.7984C19.4884 82.6408 18.9345 83.1134 19.0927 83.7436L21.5459 93.1174C21.625 93.3538 21.7833 93.5901 22.0998 93.6688L27.3226 95.3231C27.56 95.4018 27.7974 95.6381 27.8765 95.8745L28.9052 99.813C28.9843 100.049 29.1426 100.286 29.4591 100.364L33.0993 101.546C32.4662 98.5527 32.1497 95.6381 32.1497 92.7236Z" fill="url(#paint2_linear)"/>
<path opacity="0.4" d="M32.1497 92.7236V86.5794L20.1215 82.7984C19.4884 82.6408 18.9345 83.1134 19.0927 83.7436L21.5459 93.1174C21.625 93.3538 21.7833 93.5901 22.0998 93.6688L27.3226 95.3231C27.56 95.4018 27.7974 95.6381 27.8765 95.8745L28.9052 99.813C28.9843 100.049 29.1426 100.286 29.4591 100.364L33.0993 101.546C32.4662 98.5527 32.1497 95.6381 32.1497 92.7236Z" fill="url(#paint3_linear)"/>
<path opacity="0.4" d="M32.1496 59.3243L3.0287 50.1868C2.39564 50.0292 1.84171 50.5019 1.99997 51.132L6.43141 67.9892C6.51054 68.2255 6.66881 68.4618 6.98534 68.5406L16.2439 71.4551C16.4813 71.5339 16.7187 71.7702 16.7978 72.0065L18.697 79.1748C18.7761 79.4111 18.9344 79.6474 19.2509 79.7262L32.1496 83.7435V59.3243Z" fill="url(#paint4_linear)"/>
<path opacity="0.4" d="M32.1496 59.3243L3.0287 50.1868C2.39564 50.0292 1.84171 50.5019 1.99997 51.132L6.43141 67.9892C6.51054 68.2255 6.66881 68.4618 6.98534 68.5406L16.2439 71.4551C16.4813 71.5339 16.7187 71.7702 16.7978 72.0065L18.697 79.1748C18.7761 79.4111 18.9344 79.6474 19.2509 79.7262L32.1496 83.7435V59.3243Z" fill="url(#paint5_linear)"/>
<path opacity="0.4" d="M129.957 82.7983L117.454 86.7369V92.7235C117.454 95.7169 117.138 98.7102 116.505 101.625L120.699 100.286C120.936 100.207 121.174 99.9705 121.253 99.7342L122.282 95.7956C122.361 95.5593 122.519 95.323 122.836 95.2442L128.058 93.59C128.296 93.5112 128.533 93.2749 128.612 93.0386L131.065 83.6648C131.065 83.1134 130.511 82.6408 129.957 82.7983Z" fill="url(#paint6_linear)"/>
<path opacity="0.4" d="M129.957 82.7983L117.454 86.7369V92.7235C117.454 95.7169 117.138 98.7102 116.505 101.625L120.699 100.286C120.936 100.207 121.174 99.9705 121.253 99.7342L122.282 95.7956C122.361 95.5593 122.519 95.323 122.836 95.2442L128.058 93.59C128.296 93.5112 128.533 93.2749 128.612 93.0386L131.065 83.6648C131.065 83.1134 130.511 82.6408 129.957 82.7983Z" fill="url(#paint7_linear)"/>
<path d="M75.0396 47.2722C69.1838 52.3136 58.2634 55.0706 40.3003 54.9131V93.1961C40.3003 98.7101 41.5664 104.224 44.0987 109.108C48.6884 118.088 68.155 130.061 75.0396 130.061C81.2911 130.061 101.312 118.088 105.981 109.108C108.513 104.224 109.779 98.7101 109.779 93.1961V54.9131C91.8157 55.1494 80.8954 52.3136 75.0396 47.2722Z" fill="url(#paint8_linear)"/>
<path d="M75.0397 47.2723C80.7373 52.0773 91.1037 54.9131 108.038 54.9131C108.592 54.9131 109.225 54.9131 109.779 54.9131V93.1962C109.779 98.7102 108.513 104.224 105.981 109.108C101.391 118.088 81.2912 130.061 75.0397 130.061C68.1552 130.061 48.7676 118.088 44.0988 109.108C41.5665 104.145 40.3004 98.7102 40.3004 93.1962V54.9131C40.9335 54.9131 41.4874 54.9131 42.0413 54.9131C58.8966 54.9919 69.3422 52.1561 75.0397 47.2723ZM75.0397 42.1521L72.4283 44.2789C67.2056 48.6902 56.9974 50.9745 42.0413 50.9745C41.4874 50.9745 40.9335 50.9745 40.3004 50.9745L36.2646 50.8958V54.9131V93.1962C36.2646 99.4191 37.7682 105.485 40.5378 110.92C45.7606 121.081 66.4142 134 74.9606 134C80.7373 134 90.3915 128.092 93.1611 126.28C96.8804 123.838 105.981 117.537 109.383 110.92C112.153 105.485 113.657 99.4191 113.657 93.1962V54.9131V50.8958L109.621 50.9745C109.067 50.9745 108.434 50.9745 107.88 50.9745C92.9237 50.9745 82.7156 48.6902 77.4928 44.2789L75.0397 42.1521Z" fill="url(#paint9_linear)"/>
<path d="M95.4558 89.1788L86.1973 79.1748L75.91 67.9892C75.4352 67.4378 74.5647 67.4378 74.0899 67.9892L63.8027 79.096L54.5441 89.1788C53.8319 89.9665 54.3859 91.3057 55.4937 91.3057H67.5219V105.721C67.5219 106.745 68.3924 107.611 69.4211 107.611H80.658C81.6867 107.611 82.5571 106.745 82.5571 105.721V91.2269H94.5853C95.6141 91.2269 96.168 89.9665 95.4558 89.1788Z" fill="#9F4801"/>
<path d="M55.3354 91.2269L63.8818 82.0106L74.169 70.9038C74.6438 70.3524 75.5143 70.3524 75.9891 70.9038L86.2764 82.0106L94.8227 91.2269C95.7723 91.0693 96.2471 89.8878 95.5349 89.1788L86.2764 79.1748L75.91 67.9892C75.4352 67.4378 74.5647 67.4378 74.0899 67.9892L63.8026 79.096L54.5441 89.1788C53.911 89.8878 54.3858 91.0693 55.3354 91.2269Z" fill="#783601"/>
<path d="M94.5852 29.1963L96.5635 32.6622L100.124 34.6315L96.5635 36.5221L94.5852 40.0668L92.686 36.5221L89.125 34.6315L92.686 32.6622L94.5852 29.1963Z" fill="url(#paint10_linear)"/>
<path d="M58.1844 16L61.0332 21.2777L66.4142 24.1923L61.0332 27.1068L58.1844 32.3845L55.2565 27.1068L49.9546 24.1923L55.2565 21.2777L58.1844 16Z" fill="url(#paint11_linear)"/>
<path d="M45.6022 60.191L42.9117 59.4821L40.3003 58.7731V54.9133H44.1778L44.89 57.5916L45.6022 60.191Z" fill="url(#paint12_linear)"/>
<path d="M105.189 60.191L105.901 57.5916L106.613 54.9133H110.491L110.57 58.7731L107.879 59.4821L105.189 60.191Z" fill="url(#paint13_linear)"/>
<defs>
<linearGradient id="paint0_linear" x1="132.713" y1="83.8614" x2="132.713" y2="50.1757" gradientUnits="userSpaceOnUse">
<stop stop-color="#F7A01D"/>
<stop offset="1" stop-color="#FFD428"/>
</linearGradient>
<linearGradient id="paint1_linear" x1="132.713" y1="83.8614" x2="132.713" y2="50.1757" gradientUnits="userSpaceOnUse">
<stop stop-color="#9F4801"/>
<stop offset="0.5845" stop-color="#9F4801" stop-opacity="0"/>
</linearGradient>
<linearGradient id="paint2_linear" x1="26.0492" y1="101.45" x2="26.0492" y2="82.7588" gradientUnits="userSpaceOnUse">
<stop stop-color="#F7A01D"/>
<stop offset="1" stop-color="#FFD428"/>
</linearGradient>
<linearGradient id="paint3_linear" x1="26.0492" y1="101.45" x2="26.0492" y2="82.7588" gradientUnits="userSpaceOnUse">
<stop stop-color="#9F4801"/>
<stop offset="0.5845" stop-color="#9F4801" stop-opacity="0"/>
</linearGradient>
<linearGradient id="paint4_linear" x1="17.0607" y1="83.7131" x2="17.0607" y2="50.1756" gradientUnits="userSpaceOnUse">
<stop stop-color="#F7A01D"/>
<stop offset="1" stop-color="#FFD428"/>
</linearGradient>
<linearGradient id="paint5_linear" x1="17.0607" y1="83.7131" x2="17.0607" y2="50.1756" gradientUnits="userSpaceOnUse">
<stop stop-color="#9F4801"/>
<stop offset="0.5845" stop-color="#9F4801" stop-opacity="0"/>
</linearGradient>
<linearGradient id="paint6_linear" x1="123.708" y1="101.609" x2="123.708" y2="82.7588" gradientUnits="userSpaceOnUse">
<stop stop-color="#F7A01D"/>
<stop offset="1" stop-color="#FFD428"/>
</linearGradient>
<linearGradient id="paint7_linear" x1="123.708" y1="101.609" x2="123.708" y2="82.7588" gradientUnits="userSpaceOnUse">
<stop stop-color="#9F4801"/>
<stop offset="0.5845" stop-color="#9F4801" stop-opacity="0"/>
</linearGradient>
<linearGradient id="paint8_linear" x1="75.0057" y1="130.037" x2="75.0057" y2="47.3103" gradientUnits="userSpaceOnUse">
<stop stop-color="#FFD428"/>
<stop offset="1" stop-color="#F7A01D"/>
</linearGradient>
<linearGradient id="paint9_linear" x1="75.0058" y1="133.976" x2="75.0058" y2="42.13" gradientUnits="userSpaceOnUse">
<stop stop-color="#F7A01D"/>
<stop offset="1" stop-color="#FFD428"/>
</linearGradient>
<linearGradient id="paint10_linear" x1="89.1132" y1="34.6286" x2="100.092" y2="34.6286" gradientUnits="userSpaceOnUse">
<stop stop-color="#FFD428"/>
<stop offset="1" stop-color="#F7A01D"/>
</linearGradient>
<linearGradient id="paint11_linear" x1="49.9191" y1="24.2017" x2="66.3977" y2="24.2017" gradientUnits="userSpaceOnUse">
<stop stop-color="#FFD428"/>
<stop offset="1" stop-color="#F7A01D"/>
</linearGradient>
<linearGradient id="paint12_linear" x1="40.2717" y1="57.5693" x2="45.5945" y2="57.5693" gradientUnits="userSpaceOnUse">
<stop stop-color="#FFD428"/>
<stop offset="1" stop-color="#F7A01D"/>
</linearGradient>
<linearGradient id="paint13_linear" x1="107.87" y1="54.9199" x2="107.87" y2="60.2185" gradientUnits="userSpaceOnUse">
<stop stop-color="#FFD428"/>
<stop offset="1" stop-color="#F7A01D"/>
</linearGradient>
</defs>
</svg>
