<svg width="150" height="150" viewBox="0 0 150 150" fill="none" xmlns="http://www.w3.org/2000/svg">
<path d="M113.843 56.0602C110.673 49.2661 103.765 44.397 95.8389 44.397H55.0742C47.0345 44.397 40.1271 49.1529 37.0698 56.0602C30.5021 68.969 21.4433 99.2029 32.88 105.204C40.6933 109.281 50.8845 98.7499 57.905 89.4646H93.008C100.029 98.7499 110.22 109.281 118.033 105.204C129.47 99.2029 120.411 68.969 113.843 56.0602Z" fill="url(#paint0_linear)"/>
<path d="M42.958 67.7236C42.958 66.3647 44.0904 65.1191 45.5624 65.1191H60.8492C62.208 65.1191 63.4536 66.2515 63.4536 67.7236C63.4536 69.0824 62.3212 70.328 60.8492 70.328H45.4492C44.0904 70.2147 42.958 69.0824 42.958 67.7236Z" fill="#9F4801"/>
<path d="M61.1889 65.1191H45.2227C43.9771 65.1191 42.958 66.1383 42.958 67.3838V68.0633C42.958 68.1765 42.958 68.2897 42.958 68.403C43.0712 67.2706 44.0904 66.478 45.1095 66.478H61.0757C62.208 66.478 63.1139 67.2706 63.2271 68.403C63.2271 68.2897 63.2271 68.1765 63.2271 68.0633V67.3838C63.3404 66.1383 62.3212 65.1191 61.1889 65.1191Z" fill="#783601"/>
<path d="M53.1493 77.9148C51.7905 77.9148 50.5449 76.7824 50.5449 75.3104V60.0236C50.5449 58.6648 51.6773 57.4192 53.1493 57.4192C54.5082 57.4192 55.7537 58.5515 55.7537 60.0236V75.3104C55.7537 76.7824 54.5082 77.9148 53.1493 77.9148Z" fill="#9F4801"/>
<path d="M53.489 57.4192H52.8096C51.564 57.4192 50.5449 58.4383 50.5449 59.6839V60.9295C50.5449 59.6839 51.564 58.6648 52.8096 58.6648H53.489C54.7346 58.6648 55.7537 59.6839 55.7537 60.9295V59.6839C55.7537 58.4383 54.7346 57.4192 53.489 57.4192Z" fill="#783601"/>
<path d="M95.839 44.3971C103.879 44.3971 110.786 49.1529 113.843 56.0603C120.411 68.9691 129.47 99.2029 117.92 105.204C116.674 105.771 115.429 106.11 114.183 106.11C107.049 106.11 98.7831 97.2779 92.8949 89.4647H57.792C52.017 97.3912 43.7508 106.11 36.617 106.11C35.3714 106.11 34.1258 105.884 32.8802 105.204C21.4434 99.2029 30.389 68.9691 36.9567 56.0603C40.014 49.1529 46.9214 44.3971 54.9611 44.3971H95.839ZM95.839 41H55.0743C47.3743 41 40.2405 44.85 36.0508 51.0779L35.9375 50.9647L34.1258 54.475C30.7287 61.0426 26.539 72.2529 24.8405 82.6706C22.0096 99.5426 26.8787 105.884 31.2949 108.262C32.8802 109.168 34.692 109.507 36.617 109.507C43.2978 109.507 50.9978 103.959 59.6037 92.8618H91.3096C99.9155 103.959 107.615 109.507 114.296 109.507C116.221 109.507 117.92 109.054 119.618 108.262C124.148 105.884 128.904 99.5426 126.073 82.6706C124.374 72.2529 120.185 61.0426 116.901 54.475L115.089 50.8515L114.863 50.9647C110.56 44.85 103.539 41 95.839 41Z" fill="url(#paint1_linear)"/>
<path d="M99.2359 63.9867C101.175 63.9867 102.746 62.415 102.746 60.4764C102.746 58.5377 101.175 56.9661 99.2359 56.9661C97.2972 56.9661 95.7256 58.5377 95.7256 60.4764C95.7256 62.415 97.2972 63.9867 99.2359 63.9867Z" fill="#9F4801"/>
<path d="M99.2359 58.4381C100.934 58.4381 102.293 59.5704 102.633 61.1557C102.746 60.9293 102.746 60.7028 102.746 60.3631C102.746 58.4381 101.161 56.8528 99.2359 56.8528C97.3109 56.8528 95.7256 58.4381 95.7256 60.3631C95.7256 60.5895 95.7256 60.9293 95.8388 61.1557C96.2918 59.6837 97.6506 58.4381 99.2359 58.4381Z" fill="#783601"/>
<path d="M92.3287 70.8939C94.2673 70.8939 95.8389 69.3223 95.8389 67.3836C95.8389 65.4449 94.2673 63.8733 92.3287 63.8733C90.39 63.8733 88.8184 65.4449 88.8184 67.3836C88.8184 69.3223 90.39 70.8939 92.3287 70.8939Z" fill="#9F4801"/>
<path d="M106.256 70.8939C108.195 70.8939 109.767 69.3223 109.767 67.3836C109.767 65.4449 108.195 63.8733 106.256 63.8733C104.318 63.8733 102.746 65.4449 102.746 67.3836C102.746 69.3223 104.318 70.8939 106.256 70.8939Z" fill="#9F4801"/>
<path d="M99.2359 77.9144C101.175 77.9144 102.746 76.3428 102.746 74.4041C102.746 72.4654 101.175 70.8938 99.2359 70.8938C97.2972 70.8938 95.7256 72.4654 95.7256 74.4041C95.7256 76.3428 97.2972 77.9144 99.2359 77.9144Z" fill="#9F4801"/>
<path d="M106.256 65.4586C107.955 65.4586 109.314 66.5909 109.653 68.1762C109.767 67.9498 109.767 67.7233 109.767 67.3836C109.767 65.4586 108.181 63.8733 106.256 63.8733C104.331 63.8733 102.746 65.4586 102.746 67.3836C102.746 67.6101 102.746 67.9498 102.859 68.1762C103.199 66.5909 104.671 65.4586 106.256 65.4586Z" fill="#783601"/>
<path d="M92.3287 65.4586C94.0272 65.4586 95.386 66.5909 95.7257 68.1762C95.8389 67.9498 95.8389 67.7233 95.8389 67.3836C95.8389 65.4586 94.2537 63.8733 92.3287 63.8733C90.4037 63.8733 88.8184 65.4586 88.8184 67.3836C88.8184 67.6101 88.8184 67.9498 88.9316 68.1762C89.2713 66.5909 90.6301 65.4586 92.3287 65.4586Z" fill="#783601"/>
<path d="M99.2359 72.4791C100.934 72.4791 102.293 73.6114 102.633 75.1967C102.746 74.9703 102.746 74.7438 102.746 74.4041C102.746 72.4791 101.161 70.8938 99.2359 70.8938C97.3109 70.8938 95.7256 72.4791 95.7256 74.4041C95.7256 74.6306 95.7256 74.9703 95.8388 75.1967C96.2918 73.6114 97.6506 72.4791 99.2359 72.4791Z" fill="#783601"/>
<defs>
<linearGradient id="paint0_linear" x1="75.4362" y1="106.124" x2="75.4362" y2="44.3991" gradientUnits="userSpaceOnUse">
<stop stop-color="#F7A01D"/>
<stop offset="1" stop-color="#FFD428"/>
</linearGradient>
<linearGradient id="paint1_linear" x1="75.4364" y1="41.0022" x2="75.4364" y2="109.521" gradientUnits="userSpaceOnUse">
<stop stop-color="#F7A01D"/>
<stop offset="1" stop-color="#FFD428"/>
</linearGradient>
</defs>
</svg>
