<svg width="150" height="150" viewBox="0 0 150 150" fill="none" xmlns="http://www.w3.org/2000/svg">
<path opacity="0.4" d="M128.324 56.2536C125.886 49.7099 126.784 43.555 128.003 37.1409C132.047 42.7775 132.175 50.5521 128.324 56.2536Z" fill="url(#paint0_linear)"/>
<path opacity="0.4" d="M97.3896 101.023C101.305 98.4958 108.108 98.3015 111.188 100.569C108.3 104.845 101.24 105.169 97.3896 101.023Z" fill="url(#paint1_linear)"/>
<path opacity="0.4" d="M126.142 82.1691C125.629 87.2874 119.275 90.786 114.269 88.7128C116.194 85.7325 123.062 81.0677 126.142 82.1691Z" fill="url(#paint2_linear)"/>
<path opacity="0.4" d="M119.275 91.693C118.569 95.1916 116.323 97.2 112.857 97.0704C110.739 97.0056 108.621 96.5521 106.311 96.2282C108.557 93.5071 116.323 90.9155 119.275 91.693Z" fill="url(#paint3_linear)"/>
<path opacity="0.4" d="M104.77 88.0647C106.503 92.8591 101.946 98.9492 98.3521 99.8562C97.7103 95.321 101.176 89.6844 104.77 88.0647Z" fill="url(#paint4_linear)"/>
<path opacity="0.4" d="M111.573 81.9099C113.306 85.2789 111.702 91.8874 107.017 94.4141C105.797 90.3972 108.172 83.9184 111.573 81.9099Z" fill="url(#paint5_linear)"/>
<path opacity="0.4" d="M133.009 52.2366C133.202 58.4563 130.506 63.3802 126.591 63.9633C127.554 59.4281 128.902 55.2816 133.009 52.2366Z" fill="url(#paint6_linear)"/>
<path opacity="0.4" d="M114.975 86.7044C112.985 82.6227 113.884 77.6339 117.093 75.1072C119.403 77.7635 118.312 83.9184 114.975 86.7044Z" fill="url(#paint7_linear)"/>
<path opacity="0.4" d="M120.687 80.1607C122.677 76.4029 124.859 73.1635 129.03 71.9973C129.48 74.2001 128.581 76.5325 126.592 78.217C124.923 79.5128 123.126 80.4846 120.687 80.1607Z" fill="url(#paint8_linear)"/>
<path opacity="0.4" d="M124.41 69.9889C120.687 67.2677 120.109 61.372 122.356 58.8452C125.244 61.1776 126.078 65.7776 124.41 69.9889Z" fill="url(#paint9_linear)"/>
<path opacity="0.4" d="M119.788 67.4619C122.869 70.2478 123.447 74.783 121.136 78.4112C118.505 76.5323 117.67 70.3774 119.788 67.4619Z" fill="url(#paint10_linear)"/>
<path opacity="0.4" d="M131.662 63.3154C132.111 68.3042 129.094 71.738 124.538 71.5436C125.308 68.1098 128.966 63.769 131.662 63.3154Z" fill="url(#paint11_linear)"/>
<path opacity="0.4" d="M123.767 50.1633C126.655 51.9774 128.196 58.1971 126.655 61.6957C123.832 59.4929 122.355 53.6619 123.767 50.1633Z" fill="url(#paint12_linear)"/>
<path opacity="0.4" d="M20.7592 56.2536C23.1338 49.7747 22.2353 43.555 21.0801 37.1409C17.0367 42.7775 16.8442 50.5521 20.7592 56.2536Z" fill="url(#paint13_linear)"/>
<path opacity="0.4" d="M51.6297 101.023C47.7148 98.4958 40.9117 98.3015 37.8311 100.569C40.7192 104.845 47.7789 105.169 51.6297 101.023Z" fill="url(#paint14_linear)"/>
<path opacity="0.4" d="M22.9409 82.1691C23.4544 87.2874 29.8082 90.786 34.8142 88.7128C32.8246 85.7325 25.9574 81.0677 22.9409 82.1691Z" fill="url(#paint15_linear)"/>
<path opacity="0.4" d="M29.8086 91.693C30.5146 95.1916 32.7609 97.2 36.2266 97.0704C38.3445 97.0056 40.4625 96.5521 42.7729 96.2282C40.4625 93.5071 32.6967 90.9155 29.8086 91.693Z" fill="url(#paint16_linear)"/>
<path opacity="0.4" d="M44.3128 88.0647C42.58 92.8591 47.1367 98.9492 50.7308 99.8562C51.3726 95.321 47.9069 89.6844 44.3128 88.0647Z" fill="url(#paint17_linear)"/>
<path opacity="0.4" d="M37.5099 81.9099C35.7771 85.2789 37.3816 91.8874 42.0667 94.4141C43.222 90.3972 40.8473 83.9184 37.5099 81.9099Z" fill="url(#paint18_linear)"/>
<path opacity="0.4" d="M16.0097 52.2366C15.8171 58.4563 18.5127 63.3802 22.4277 63.9633C21.465 59.4281 20.1172 55.2816 16.0097 52.2366Z" fill="url(#paint19_linear)"/>
<path opacity="0.4" d="M34.044 86.7044C36.0336 82.6227 35.1351 77.6339 31.9261 75.1072C29.6156 77.7635 30.7708 83.9184 34.044 86.7044Z" fill="url(#paint20_linear)"/>
<path opacity="0.4" d="M28.3964 80.1607C26.4068 76.4029 24.2247 73.1635 20.053 71.9973C19.6037 74.2001 20.5022 76.5325 22.4918 78.217C24.0963 79.5128 25.9575 80.4846 28.3964 80.1607Z" fill="url(#paint21_linear)"/>
<path opacity="0.4" d="M24.6099 69.9889C28.3324 67.2677 28.91 61.372 26.6637 58.8452C23.8398 61.1776 22.9412 65.7776 24.6099 69.9889Z" fill="url(#paint22_linear)"/>
<path opacity="0.4" d="M29.2949 67.4619C26.2143 70.2478 25.6367 74.783 27.9471 78.4112C30.5785 76.5323 31.3487 70.3774 29.2949 67.4619Z" fill="url(#paint23_linear)"/>
<path opacity="0.4" d="M17.3577 63.3154C16.9084 68.3042 19.9249 71.738 24.4817 71.5436C23.7757 68.1098 20.0532 63.769 17.3577 63.3154Z" fill="url(#paint24_linear)"/>
<path opacity="0.4" d="M25.316 50.1633C22.4279 51.9774 20.8875 58.1971 22.4279 61.6957C25.1876 59.4929 26.7279 53.6619 25.316 50.1633Z" fill="url(#paint25_linear)"/>
<path d="M96.9408 115.276C77.751 115.276 78.5212 93.3126 80.5107 87.8704C78.457 88.583 76.2749 88.9718 73.836 88.9718C71.8464 88.9718 70.0494 88.7126 68.3165 88.1943C70.5628 94.3492 68.3807 115.276 51.373 115.276V119.422H96.9408V115.276Z" fill="url(#paint26_linear)"/>
<path d="M80.5106 87.8057C78.521 93.248 77.8151 115.211 96.9407 115.211V119.358H51.3729V115.211C68.3806 115.211 70.5627 94.2846 68.3164 88.1297C70.0493 88.648 71.9105 88.9072 73.8359 88.9072C76.2106 88.9719 78.4569 88.5832 80.5106 87.8057ZM83.7196 84.6311L79.8688 85.9917C78.0076 86.6395 75.9538 87.0283 73.8359 87.0283C72.103 87.0283 70.4344 86.7691 68.8299 86.3156L65.1716 85.279L66.5194 88.9072C67.6746 92.017 67.5463 101.023 63.2462 107.242C60.4865 111.259 56.5073 113.333 51.4371 113.333H49.5117V115.276V119.423V121.366H51.4371H97.0049H98.9302V119.423V115.276V113.333H97.0049C91.6137 113.333 87.5062 111.389 84.8749 107.631C80.4464 101.217 81.2808 91.4987 82.3718 88.5184L83.7196 84.6311Z" fill="url(#paint27_linear)"/>
<path d="M103.615 119.423H96.9406H51.3729H44.6982C43.4146 119.423 42.3877 120.459 42.3877 121.755V131.085H105.926V121.755C105.926 120.459 104.899 119.423 103.615 119.423Z" fill="url(#paint28_linear)"/>
<path d="M96.9408 115.211C77.751 115.211 78.5212 93.1183 80.5107 87.676C78.457 88.3887 76.2749 88.8422 73.836 88.8422C71.8464 88.8422 70.0494 88.5831 68.3165 88.0648C70.5628 94.2197 68.3807 115.276 51.373 115.276V119.487H96.9408V115.211Z" fill="url(#paint29_linear)"/>
<path d="M47.5221 60.4C38.0877 59.7522 36.6115 39.1493 36.6115 39.1493C36.2906 37.1409 36.6757 35.7803 38.0877 35.7803H43.4146C43.2862 34.1606 43.1579 32.6057 43.0937 31.2451H34.3652C31.9264 31.2451 31.2204 33.1888 31.798 36.1043C31.798 36.1043 34.1727 64.1578 49.4475 66.6198C48.7415 64.6113 48.0997 62.5381 47.5221 60.4Z" fill="url(#paint30_linear)"/>
<path d="M100.92 60.4C110.354 59.7522 111.83 39.1493 111.83 39.1493C112.151 37.1409 111.766 35.7803 110.354 35.7803H105.027C105.156 34.1606 105.284 32.6057 105.348 31.2451H114.012C116.451 31.2451 117.157 33.1888 116.58 36.1043C116.58 36.1043 114.205 64.1578 98.9302 66.6198C99.7003 64.6113 100.342 62.5381 100.92 60.4Z" fill="url(#paint31_linear)"/>
<path d="M100.92 60.4C110.354 59.7522 111.83 39.1493 111.83 39.1493C112.151 37.1409 111.766 35.7803 110.354 35.7803H105.027C105.156 34.1606 105.284 32.6057 105.348 31.2451H114.012C116.451 31.2451 117.157 33.1888 116.58 36.1043C116.58 36.1043 114.205 64.1578 98.9302 66.6198C99.7003 64.6113 100.342 62.5381 100.92 60.4Z" fill="url(#paint32_linear)"/>
<path d="M47.5221 60.4C38.0877 59.7522 36.6115 39.1493 36.6115 39.1493C36.2906 37.1409 36.6757 35.7803 38.0877 35.7803H43.4146C43.2862 34.1606 43.1579 32.6057 43.0937 31.2451H34.3652C31.9264 31.2451 31.2204 33.1888 31.798 36.1043C31.798 36.1043 34.1727 64.1578 49.4475 66.6198C48.7415 64.6113 48.0997 62.5381 47.5221 60.4Z" fill="url(#paint33_linear)"/>
<path d="M44.5054 22.8872C44.5054 22.8872 44.5054 86.6393 74.2207 86.6393C103.936 86.6393 104 22.8872 104 22.8872H74.1565H44.5054Z" fill="url(#paint34_linear)"/>
<path d="M104 22.8872H44.313V25.4788H104V22.8872Z" fill="url(#paint35_linear)"/>
<path d="M104 22.8874C104 22.8874 104 86.6395 74.2852 86.6395C44.5699 86.6395 44.5057 22.8874 44.5057 22.8874H74.1568H104ZM106.568 20.2959H104H74.1568H44.5057H41.9385V22.8874C41.9385 23.5353 42.0027 39.279 45.7251 55.3466C47.9714 64.9353 51.052 72.5804 54.967 78.1522C60.1014 85.4734 66.5836 89.2311 74.2852 89.2311C81.9867 89.2311 88.4689 85.5381 93.6033 78.1522C97.5183 72.5804 100.599 64.9353 102.845 55.3466C106.568 39.279 106.632 23.5353 106.632 22.8874V20.2959H106.568Z" fill="url(#paint36_linear)"/>
<path d="M75.0551 39.0845L78.8417 46.8592C78.9701 47.1183 79.1626 47.2479 79.4193 47.3127L87.8911 48.5437C88.5329 48.6085 88.7896 49.4507 88.3404 49.9043L82.2433 55.9296C82.0507 56.124 81.9865 56.3831 81.9865 56.6423L83.4627 65.1296C83.591 65.7775 82.8851 66.2958 82.3074 65.9719L74.7342 61.955C74.4775 61.8254 74.2208 61.8254 73.9641 61.955L66.3908 65.9719C65.8132 66.2958 65.1072 65.7775 65.2356 65.1296L66.7117 56.6423C66.7759 56.3831 66.6475 56.124 66.455 55.9296L60.3579 49.9043C59.9086 49.4507 60.1654 48.6085 60.8072 48.5437L69.2789 47.3127C69.5356 47.2479 69.7924 47.1183 69.8565 46.8592L73.6432 39.0845C73.8999 38.5014 74.7984 38.5014 75.0551 39.0845Z" fill="#9F4801"/>
<path d="M62.219 49.2564C63.4384 49.2564 69.4072 48.155 69.4072 48.155C69.9848 48.0902 70.434 47.7014 70.6908 47.2479L74.4132 39.6676L78.1356 47.2479C78.3924 47.7662 78.8416 48.0902 79.4192 48.155L86.9283 49.2564H88.6612C88.6612 48.9324 88.4044 48.5437 87.9552 48.5437L79.4834 47.3127C79.2267 47.2479 78.97 47.1183 78.9058 46.8592L75.055 39.0845C74.7341 38.5014 73.8998 38.5014 73.6431 39.0845L69.8564 46.8592C69.7281 47.1183 69.5355 47.2479 69.2788 47.3127L60.8071 48.5437C60.422 48.6085 60.1011 49.2564 60.1011 49.2564C60.1011 49.2564 60.9354 49.2564 62.219 49.2564Z" fill="#783601"/>
<path d="M107.209 22.8873H41.1041C40.013 22.8873 39.1787 22.0451 39.1787 20.9437C39.1787 19.8423 40.013 19 41.1041 19H107.209C108.3 19 109.135 19.8423 109.135 20.9437C109.135 22.0451 108.236 22.8873 107.209 22.8873Z" fill="url(#paint37_linear)"/>
<defs>
<linearGradient id="paint0_linear" x1="126.787" y1="46.708" x2="131.127" y2="46.708" gradientUnits="userSpaceOnUse">
<stop stop-color="#FFD428"/>
<stop offset="1" stop-color="#F7A01D"/>
</linearGradient>
<linearGradient id="paint1_linear" x1="97.4105" y1="101.442" x2="111.231" y2="101.442" gradientUnits="userSpaceOnUse">
<stop stop-color="#FFD428"/>
<stop offset="1" stop-color="#F7A01D"/>
</linearGradient>
<linearGradient id="paint2_linear" x1="114.249" y1="85.6659" x2="126.121" y2="85.6659" gradientUnits="userSpaceOnUse">
<stop stop-color="#FFD428"/>
<stop offset="1" stop-color="#F7A01D"/>
</linearGradient>
<linearGradient id="paint3_linear" x1="106.297" y1="94.3307" x2="119.26" y2="94.3307" gradientUnits="userSpaceOnUse">
<stop stop-color="#FFD428"/>
<stop offset="1" stop-color="#F7A01D"/>
</linearGradient>
<linearGradient id="paint4_linear" x1="98.246" y1="93.9431" x2="105.134" y2="93.9431" gradientUnits="userSpaceOnUse">
<stop stop-color="#FFD428"/>
<stop offset="1" stop-color="#F7A01D"/>
</linearGradient>
<linearGradient id="paint5_linear" x1="106.706" y1="88.177" x2="112.227" y2="88.177" gradientUnits="userSpaceOnUse">
<stop stop-color="#FFD428"/>
<stop offset="1" stop-color="#F7A01D"/>
</linearGradient>
<linearGradient id="paint6_linear" x1="126.614" y1="58.1117" x2="133.04" y2="58.1117" gradientUnits="userSpaceOnUse">
<stop stop-color="#FFD428"/>
<stop offset="1" stop-color="#F7A01D"/>
</linearGradient>
<linearGradient id="paint7_linear" x1="113.927" y1="80.9034" x2="118.324" y2="80.9034" gradientUnits="userSpaceOnUse">
<stop stop-color="#FFD428"/>
<stop offset="1" stop-color="#F7A01D"/>
</linearGradient>
<linearGradient id="paint8_linear" x1="120.672" y1="76.0967" x2="129.11" y2="76.0967" gradientUnits="userSpaceOnUse">
<stop stop-color="#FFD428"/>
<stop offset="1" stop-color="#F7A01D"/>
</linearGradient>
<linearGradient id="paint9_linear" x1="121.065" y1="64.4308" x2="125.266" y2="64.4308" gradientUnits="userSpaceOnUse">
<stop stop-color="#FFD428"/>
<stop offset="1" stop-color="#F7A01D"/>
</linearGradient>
<linearGradient id="paint10_linear" x1="118.585" y1="72.9253" x2="122.525" y2="72.9253" gradientUnits="userSpaceOnUse">
<stop stop-color="#FFD428"/>
<stop offset="1" stop-color="#F7A01D"/>
</linearGradient>
<linearGradient id="paint11_linear" x1="124.573" y1="67.4293" x2="131.714" y2="67.4293" gradientUnits="userSpaceOnUse">
<stop stop-color="#FFD428"/>
<stop offset="1" stop-color="#F7A01D"/>
</linearGradient>
<linearGradient id="paint12_linear" x1="123.213" y1="55.9255" x2="127.244" y2="55.9255" gradientUnits="userSpaceOnUse">
<stop stop-color="#FFD428"/>
<stop offset="1" stop-color="#F7A01D"/>
</linearGradient>
<linearGradient id="paint13_linear" x1="17.9225" y1="46.708" x2="22.2622" y2="46.708" gradientUnits="userSpaceOnUse">
<stop stop-color="#FFD428"/>
<stop offset="1" stop-color="#F7A01D"/>
</linearGradient>
<linearGradient id="paint14_linear" x1="37.8187" y1="101.442" x2="51.6391" y2="101.442" gradientUnits="userSpaceOnUse">
<stop stop-color="#FFD428"/>
<stop offset="1" stop-color="#F7A01D"/>
</linearGradient>
<linearGradient id="paint15_linear" x1="22.9285" y1="85.6659" x2="34.8003" y2="85.6659" gradientUnits="userSpaceOnUse">
<stop stop-color="#FFD428"/>
<stop offset="1" stop-color="#F7A01D"/>
</linearGradient>
<linearGradient id="paint16_linear" x1="29.79" y1="94.3307" x2="42.7525" y2="94.3307" gradientUnits="userSpaceOnUse">
<stop stop-color="#FFD428"/>
<stop offset="1" stop-color="#F7A01D"/>
</linearGradient>
<linearGradient id="paint17_linear" x1="43.9154" y1="93.9431" x2="50.8031" y2="93.9431" gradientUnits="userSpaceOnUse">
<stop stop-color="#FFD428"/>
<stop offset="1" stop-color="#F7A01D"/>
</linearGradient>
<linearGradient id="paint18_linear" x1="36.8224" y1="88.177" x2="42.3436" y2="88.177" gradientUnits="userSpaceOnUse">
<stop stop-color="#FFD428"/>
<stop offset="1" stop-color="#F7A01D"/>
</linearGradient>
<linearGradient id="paint19_linear" x1="16.0097" y1="58.1117" x2="22.4353" y2="58.1117" gradientUnits="userSpaceOnUse">
<stop stop-color="#FFD428"/>
<stop offset="1" stop-color="#F7A01D"/>
</linearGradient>
<linearGradient id="paint20_linear" x1="30.7247" y1="80.9034" x2="35.1224" y2="80.9034" gradientUnits="userSpaceOnUse">
<stop stop-color="#FFD428"/>
<stop offset="1" stop-color="#F7A01D"/>
</linearGradient>
<linearGradient id="paint21_linear" x1="19.9398" y1="76.0967" x2="28.3772" y2="76.0967" gradientUnits="userSpaceOnUse">
<stop stop-color="#FFD428"/>
<stop offset="1" stop-color="#F7A01D"/>
</linearGradient>
<linearGradient id="paint22_linear" x1="23.7836" y1="64.4308" x2="27.985" y2="64.4308" gradientUnits="userSpaceOnUse">
<stop stop-color="#FFD428"/>
<stop offset="1" stop-color="#F7A01D"/>
</linearGradient>
<linearGradient id="paint23_linear" x1="26.5243" y1="72.9253" x2="30.4648" y2="72.9253" gradientUnits="userSpaceOnUse">
<stop stop-color="#FFD428"/>
<stop offset="1" stop-color="#F7A01D"/>
</linearGradient>
<linearGradient id="paint24_linear" x1="17.3352" y1="67.4293" x2="24.4767" y2="67.4293" gradientUnits="userSpaceOnUse">
<stop stop-color="#FFD428"/>
<stop offset="1" stop-color="#F7A01D"/>
</linearGradient>
<linearGradient id="paint25_linear" x1="21.8057" y1="55.9255" x2="25.836" y2="55.9255" gradientUnits="userSpaceOnUse">
<stop stop-color="#FFD428"/>
<stop offset="1" stop-color="#F7A01D"/>
</linearGradient>
<linearGradient id="paint26_linear" x1="74.1517" y1="119.422" x2="74.1517" y2="87.8202" gradientUnits="userSpaceOnUse">
<stop stop-color="#FFD428"/>
<stop offset="1" stop-color="#F7A01D"/>
</linearGradient>
<linearGradient id="paint27_linear" x1="74.1515" y1="121.366" x2="74.1515" y2="84.6077" gradientUnits="userSpaceOnUse">
<stop stop-color="#F7A01D"/>
<stop offset="1" stop-color="#FFD428"/>
</linearGradient>
<linearGradient id="paint28_linear" x1="74.1515" y1="131.085" x2="74.1515" y2="119.423" gradientUnits="userSpaceOnUse">
<stop stop-color="#FFD428"/>
<stop offset="1" stop-color="#F7A01D"/>
</linearGradient>
<linearGradient id="paint29_linear" x1="74.1517" y1="119.422" x2="74.1517" y2="87.676" gradientUnits="userSpaceOnUse">
<stop stop-color="#9F4801" stop-opacity="0"/>
<stop offset="0.8587" stop-color="#9F4801" stop-opacity="0.8587"/>
<stop offset="1" stop-color="#9F4801"/>
</linearGradient>
<linearGradient id="paint30_linear" x1="40.531" y1="66.6722" x2="40.531" y2="31.3099" gradientUnits="userSpaceOnUse">
<stop stop-color="#F7A01D"/>
<stop offset="1" stop-color="#FFD428"/>
</linearGradient>
<linearGradient id="paint31_linear" x1="107.92" y1="66.6722" x2="107.92" y2="31.3099" gradientUnits="userSpaceOnUse">
<stop stop-color="#F7A01D"/>
<stop offset="1" stop-color="#FFD428"/>
</linearGradient>
<linearGradient id="paint32_linear" x1="102.219" y1="48.1907" x2="114.344" y2="50.3086" gradientUnits="userSpaceOnUse">
<stop stop-color="#9F4801"/>
<stop offset="0.1413" stop-color="#9F4801" stop-opacity="0.8587"/>
<stop offset="1" stop-color="#9F4801" stop-opacity="0"/>
</linearGradient>
<linearGradient id="paint33_linear" x1="46.232" y1="48.1907" x2="34.1068" y2="50.3086" gradientUnits="userSpaceOnUse">
<stop stop-color="#9F4801"/>
<stop offset="0.1413" stop-color="#9F4801" stop-opacity="0.8587"/>
<stop offset="1" stop-color="#9F4801" stop-opacity="0"/>
</linearGradient>
<linearGradient id="paint34_linear" x1="74.2497" y1="22.8872" x2="74.2497" y2="86.6354" gradientUnits="userSpaceOnUse">
<stop stop-color="#F7A01D"/>
<stop offset="1" stop-color="#FFD428"/>
</linearGradient>
<linearGradient id="paint35_linear" x1="74.1514" y1="25.4788" x2="74.1514" y2="22.8872" gradientUnits="userSpaceOnUse">
<stop stop-color="#9F4801" stop-opacity="0"/>
<stop offset="1" stop-color="#9F4801"/>
</linearGradient>
<linearGradient id="paint36_linear" x1="74.25" y1="89.2271" x2="74.25" y2="20.2959" gradientUnits="userSpaceOnUse">
<stop stop-color="#F7A01D"/>
<stop offset="1" stop-color="#FFD428"/>
</linearGradient>
<linearGradient id="paint37_linear" x1="74.1515" y1="22.8873" x2="74.1515" y2="19" gradientUnits="userSpaceOnUse">
<stop stop-color="#F7A01D"/>
<stop offset="1" stop-color="#FFD428"/>
</linearGradient>
</defs>
</svg>
